<svg xmlns="http://www.w3.org/2000/svg" width="44" height="44" fill="none" viewBox="0 0 44 44">
  <circle cx="22" cy="22" r="22" fill="#292D32"/>
  <path fill="#C7C7C7" d="m33.447 25.735-1.56-2.49c-.327-.555-.624-1.605-.624-2.22V17.23c0-3.525-2.153-6.57-5.257-7.995C25.194 7.855 23.696 7 21.98 7c-1.7 0-3.23.885-4.041 2.28-3.042 1.455-5.148 4.47-5.148 7.95v3.795c0 .615-.297 1.665-.624 2.205l-1.576 2.505c-.624 1.005-.765 2.115-.375 3.135.375 1.005 1.264 1.785 2.419 2.16 3.026.99 6.209 1.47 9.391 1.47 3.183 0 6.366-.48 9.392-1.455a3.68 3.68 0 0 0 2.34-2.175 3.445 3.445 0 0 0-.312-3.135Zm-6.833 8.28C25.958 35.755 24.227 37 22.198 37c-1.232 0-2.449-.48-3.307-1.335-.5-.45-.874-1.05-1.092-1.665.203.03.406.045.624.075.359.045.733.09 1.108.12.889.075 1.794.12 2.699.12.889 0 1.778-.045 2.652-.12.327-.03.655-.045.967-.09.25-.03.5-.06.765-.09Z"/>
</svg>
