<svg xmlns="http://www.w3.org/2000/svg" width="44" height="44" fill="none" viewBox="0 0 44 44">
  <circle cx="22" cy="22" r="22" fill="#292D32"/>
  <path fill="#D9D9D9" d="M32.595 12.127 24.702 7.64c-1.511-.855-3.878-.855-5.389 0l-7.97 4.516C8.184 14.257 8 14.572 8 17.917v8.147c0 3.345.183 3.675 3.405 5.805l7.893 4.486c.763.435 1.74.645 2.702.645s1.939-.21 2.687-.645l7.97-4.516c3.16-2.1 3.343-2.415 3.343-5.76v-8.161c0-3.346-.183-3.66-3.405-5.791ZM22 26.874c-2.733 0-4.962-2.19-4.962-4.876 0-2.685 2.23-4.876 4.962-4.876 2.733 0 4.962 2.19 4.962 4.876 0 2.685-2.23 4.876-4.962 4.876Z"/>
</svg>
